HIERARCHY
ROOT Hips
{
 OFFSET 0.000000 0.000000 0.000000
 CHANNELS 6 Xposition Yposition Zposition Yrotation Xrotation Zrotation
 JOINT Chest
 {
  OFFSET 0.000000 9.585900 0.002600
  CHANNELS 3 Yrotation Xrotation Zrotation
  JOINT Chest2
  {
   OFFSET 0.000000 9.601200 -0.005300
   CHANNELS 3 Yrotation Xrotation Zrotation
   JOINT Chest3
   {
    OFFSET 0.000000 9.561800 0.000000
    CHANNELS 3 Yrotation Xrotation Zrotation
    JOINT Chest4
    {
     OFFSET 0.000000 9.552100 0.000000
     CHANNELS 3 Yrotation Xrotation Zrotation
     JOINT Neck
     {
      OFFSET 0.000000 14.453000 0.000000
      CHANNELS 3 Yrotation Xrotation Zrotation
      JOINT Head
      {
       OFFSET 0.000000 8.936500 -0.011300
       CHANNELS 3 Yrotation Xrotation Zrotation
       End Site
       {
        OFFSET 0.000000 17.073600 -0.006000
       }
      }
     }
     JOINT RightCollar
     {
      OFFSET -2.921100 9.558500 0.000000
      CHANNELS 3 Yrotation Xrotation Zrotation
      JOINT RightShoulder
      {
       OFFSET -13.519700 0.000000 0.000000
       CHANNELS 3 Yrotation Xrotation Zrotation
       JOINT RightElbow
       {
        OFFSET 0.000000 -29.696600 0.000000
        CHANNELS 3 Yrotation Xrotation Zrotation
        JOINT RightWrist
        {
         OFFSET 0.000000 -24.004700 0.000000
         CHANNELS 3 Yrotation Xrotation Zrotation
         End Site
         {
          OFFSET 0.000000 -17.728500 0.000000
         }
        }
       }
      }
     }
     JOINT LeftCollar
     {
      OFFSET 2.921100 9.558500 0.000000
      CHANNELS 3 Yrotation Xrotation Zrotation
      JOINT LeftShoulder
      {
       OFFSET 13.519700 0.000000 0.000000
       CHANNELS 3 Yrotation Xrotation Zrotation
       JOINT LeftElbow
       {
        OFFSET 0.000000 -29.696600 0.000000
        CHANNELS 3 Yrotation Xrotation Zrotation
        JOINT LeftWrist
        {
         OFFSET 0.000000 -24.004700 0.000000
         CHANNELS 3 Yrotation Xrotation Zrotation
         End Site
         {
          OFFSET 0.000000 -17.728500 0.000000
         }
        }
       }
      }
     }
    }
   }
  }
 }
 JOINT RightHip
 {
  OFFSET -7.771700 -0.012900 -0.001300
  CHANNELS 3 Yrotation Xrotation Zrotation
  JOINT RightKnee
  {
   OFFSET 0.000000 -40.869800 0.001200
   CHANNELS 3 Yrotation Xrotation Zrotation
   JOINT RightAnkle
   {
    OFFSET 0.000000 -39.717900 0.002100
    CHANNELS 3 Yrotation Xrotation Zrotation
    JOINT RightToe
    {
     OFFSET 0.000000 -4.965400 11.033500
     CHANNELS 3 Yrotation Xrotation Zrotation
     End Site
     {
      OFFSET 0.000000 -1.423100 5.872300
     }
    }
   }
  }
 }
 JOINT LeftHip
 {
  OFFSET 7.771700 -0.012900 -0.001300
  CHANNELS 3 Yrotation Xrotation Zrotation
  JOINT LeftKnee
  {
   OFFSET 0.000000 -40.869800 0.001200
   CHANNELS 3 Yrotation Xrotation Zrotation
   JOINT LeftAnkle
   {
    OFFSET 0.000000 -39.717900 0.002100
    CHANNELS 3 Yrotation Xrotation Zrotation
    JOINT LeftToe
    {
     OFFSET 0.000000 -4.965400 11.033500
     CHANNELS 3 Yrotation Xrotation Zrotation
     End Site
     {
      OFFSET 0.000000 -1.423100 5.872300
     }
    }
   }
  }
 }
}
MOTION
Frames: 11
Frame Time: 0.008333
24.636968 49.994681 59.860762 173.038688 -32.946144 -6.969319 7.064687 21.342479 7.818888 0.845669 3.204155 0.827963 1.410250 5.103207 1.332425 5.756464 18.092586 5.503025 -3.425996 15.684513 0.313434 -6.496321 -6.577693 1.821690 -0.760194 -3.017581 -6.072047 4.926350 -5.816591 -6.258804 -155.349519 -69.644976 155.436007 0.259864 -6.228026 60.832839 -12.003461 -1.331792 1.454172 3.499237 -10.047751 2.583456 144.331232 -66.876381 -156.552054 11.740218 13.713615 -66.322033 -0.287191 -47.467287 11.641282 -119.994423 83.412411 -107.506179 -1.750428 -13.631112 -4.435505 -0.104877 1.062556 -0.042737 -9.059068 -51.528058 17.377735 -150.805407 80.285775 -158.682957 0.936076 -17.345971 8.249161 -0.457287 -0.722711 -0.179653
24.646286 49.992368 59.861816 173.070976 -33.045332 -7.013317 7.044109 21.546644 7.896385 0.853410 3.233288 0.831402 1.412745 5.179662 1.352906 5.731636 18.215953 5.538116 -3.411085 15.511871 0.270459 -6.460273 -6.901264 1.745809 -0.649503 -2.917072 -6.023252 4.969915 -5.946121 -6.323469 -156.654287 -69.862316 156.464535 0.393943 -6.376475 60.317658 -12.077737 -1.197234 1.454330 3.454883 -10.212713 2.466341 144.484334 -66.884447 -156.557154 11.488953 13.745883 -66.508971 -0.349720 -47.364847 11.700806 -119.984144 83.409617 -107.502913 -1.734122 -13.622606 -4.438609 -0.121815 1.054023 -0.050480 -9.055255 -51.445263 17.400349 -150.711295 80.258647 -158.577667 0.917439 -17.320815 8.258367 -0.439424 -0.746432 -0.173805
24.652895 49.989344 59.864975 173.098373 -33.132044 -7.043101 7.019127 21.733844 7.954989 0.861785 3.261664 0.835057 1.415227 5.254270 1.372898 5.707875 18.335043 5.572152 -3.394827 15.360346 0.233478 -6.437451 -7.140755 1.678090 -0.545168 -2.811333 -5.966305 5.017526 -6.083547 -6.396986 -158.055500 -70.093027 157.597385 0.522345 -6.526400 59.769794 -12.141321 -1.065022 1.448958 3.411827 -10.378382 2.351877 144.745479 -66.908088 -156.652224 11.201007 13.780323 -66.776339 -0.403241 -47.273605 11.744595 -120.009136 83.427164 -107.532161 -1.747960 -13.624957 -4.455193 -0.116057 1.053931 -0.048887 -9.055367 -51.366800 17.411002 -150.655607 80.246916 -158.521968 0.906153 -17.313770 8.261001 -0.441470 -0.752351 -0.173835
24.658376 49.987000 59.869131 173.118658 -33.216560 -7.067297 7.004916 21.890012 8.002633 0.863789 3.309231 0.847479 1.418157 5.326762 1.392184 5.686953 18.449180 5.604531 -3.379569 15.230382 0.201773 -6.418261 -7.373426 1.616854 -0.453102 -2.700271 -5.903491 5.067927 -6.227779 -6.475968 -159.491882 -70.331075 158.774777 0.646166 -6.678318 59.187255 -12.202416 -0.931442 1.438801 3.373343 -10.548377 2.246317 145.040240 -66.943360 -156.806527 10.880203 13.807185 -67.062751 -0.459602 -47.182587 11.791562 -119.969455 83.435841 -107.507826 -1.742806 -13.625804 -4.465670 -0.120880 1.056192 -0.052114 -9.047156 -51.289627 17.420223 -150.575645 80.236974 -158.446802 0.896104 -17.305516 8.277962 -0.448069 -0.757444 -0.178440
24.658348 49.982813 59.877203 173.141861 -33.271326 -7.068226 6.975432 22.014398 8.019486 0.866228 3.355406 0.859367 1.421654 5.397043 1.410724 5.669521 18.558382 5.635061 -3.365259 15.119283 0.175557 -6.356525 -7.637189 1.573462 -0.374210 -2.587140 -5.835913 5.124884 -6.370931 -6.557524 -160.896871 -70.568412 159.931355 0.774372 -6.825053 58.572655 -12.265692 -0.795697 1.426904 3.340239 -10.724814 2.149226 145.351462 -66.993409 -157.010224 10.541125 13.822627 -67.345770 -0.474529 -47.125630 11.780984 -119.977988 83.445439 -107.520822 -1.721848 -13.641711 -4.473570 -0.137513 1.073466 -0.056988 -9.022242 -51.242785 17.401006 -150.496549 80.239056 -158.388121 0.886147 -17.295798 8.311087 -0.459241 -0.757262 -0.188576
24.662054 49.983599 59.882116 173.151608 -33.360736 -7.087759 6.971903 22.164260 8.066205 0.868988 3.400310 0.870934 1.425634 5.465190 1.428750 5.654958 18.663040 5.664642 -3.351067 15.025960 0.155410 -6.326339 -7.812120 1.535676 -0.303619 -2.475595 -5.767985 5.197309 -6.504667 -6.635752 -162.216077 -70.795597 161.010312 0.910565 -6.958072 57.940559 -12.322468 -0.661871 1.413721 3.301477 -10.901497 2.059514 145.706552 -67.060098 -157.251693 10.198535 13.832866 -67.648932 -0.498190 -47.031969 11.805964 -119.914755 83.460602 -107.451753 -1.722661 -13.630203 -4.489314 -0.127363 1.067977 -0.057864 -9.013401 -51.151385 17.407042 -150.437161 80.240214 -158.337286 0.897186 -17.303829 8.298819 -0.475593 -0.751487 -0.176676
24.663851 49.987094 59.885729 173.169986 -33.461875 -7.106172 6.957077 22.324483 8.105352 0.871883 3.443770 0.882200 1.429982 5.531072 1.446291 5.642716 18.762942 5.693405 -3.338154 14.950444 0.141751 -6.300147 -7.953474 1.509426 -0.238722 -2.366894 -5.704080 5.285851 -6.628980 -6.703171 -163.390511 -71.007658 161.954602 1.044574 -7.072196 57.319657 -12.366393 -0.534400 1.396277 3.248868 -11.074035 1.979670 146.100080 -67.140640 -157.517962 9.861061 13.842321 -67.960574 -0.514075 -46.925995 11.822013 -119.855440 83.463440 -107.392190 -1.712373 -13.622565 -4.491088 -0.134979 1.057464 -0.063538 -8.979157 -51.053892 17.393603 -150.346264 80.237645 -158.246587 0.889086 -17.292079 8.302064 -0.470499 -0.762603 -0.169411
24.667186 49.990991 59.892991 173.174491 -33.546614 -7.135781 6.956333 22.462795 8.159679 0.875114 3.485589 0.892964 1.434977 5.594482 1.463066 5.633935 18.857710 5.720690 -3.328943 14.891536 0.135767 -6.283059 -8.063456 1.497853 -0.183940 -2.264977 -5.641847 5.385379 -6.746317 -6.754615 -164.361467 -71.203792 162.716898 1.171390 -7.157288 56.739847 -12.408169 -0.415145 1.375540 3.188845 -11.242315 1.909877 146.512497 -67.230386 -157.796024 9.533021 13.856317 -68.258914 -0.533547 -46.838590 11.860155 -119.765603 83.480325 -107.295108 -1.706831 -13.606242 -4.503170 -0.158792 1.050254 -0.063137 -8.930825 -50.979073 17.404104 -150.211691 80.227513 -158.095315 0.859864 -17.274079 8.316693 -0.448188 -0.775864 -0.163117
24.667007 49.994637 59.903028 173.166974 -33.614067 -7.147323 6.956665 22.580739 8.194341 0.878722 3.525133 0.903168 1.440521 5.654347 1.478936 5.628782 18.945985 5.746638 -3.322082 14.849815 0.138634 -6.273062 -8.140990 1.502912 -0.140841 -2.170749 -5.580107 5.490768 -6.854985 -6.783754 -165.096181 -71.386665 163.273994 1.291139 -7.204795 56.219093 -12.452131 -0.303192 1.355343 3.124157 -11.398193 1.846136 146.937166 -67.326210 -158.083760 9.217188 13.871959 -68.536847 -0.529530 -46.770389 11.881130 -119.605895 83.496740 -107.127621 -1.723048 -13.590557 -4.507553 -0.153387 1.050913 -0.064593 -8.906116 -50.913126 17.412232 -150.134454 80.234334 -158.024214 0.859751 -17.260345 8.328623 -0.454323 -0.781349 -0.164202
24.666112 49.999276 59.914620 173.164891 -33.674626 -7.166919 6.950616 22.686720 8.225674 0.882210 3.561698 0.912651 1.445756 5.709539 1.493666 5.624737 19.026686 5.770732 -3.312971 14.827526 0.150125 -6.261334 -8.182136 1.522284 -0.101490 -2.082331 -5.520210 5.596494 -6.950222 -6.786962 -165.593072 -71.562727 163.626495 1.399668 -7.221746 55.763333 -12.486666 -0.197162 1.337761 3.051467 -11.532413 1.785763 147.359622 -67.426379 -158.376422 8.916725 13.880140 -68.790050 -0.533864 -46.707732 11.903419 -119.442642 83.515427 -106.952549 -1.723944 -13.568319 -4.526518 -0.143208 1.047560 -0.057413 -8.894130 -50.852457 17.431401 -150.027427 80.242749 -157.925785 0.863361 -17.245328 8.338462 -0.463556 -0.785282 -0.161548
24.671423 50.003736 59.931634 173.110807 -33.715719 -7.207368 7.016949 22.736269 8.304462 0.867639 3.613137 0.923476 1.450293 5.760636 1.506966 5.619912 19.101232 5.791664 -3.300190 14.823454 0.168444 -6.244364 -8.189321 1.551962 -0.061025 -2.002796 -5.463781 5.704883 -7.028619 -6.766209 -165.885963 -71.734660 163.798156 1.489585 -7.216666 55.377709 -12.506438 -0.097917 1.322453 2.970932 -11.644075 1.729411 147.757131 -67.525654 -158.655397 8.631554 13.880878 -69.019909 -0.550627 -46.669974 11.999288 -119.087297 83.547520 -106.590515 -1.710301 -13.512718 -4.536446 -0.157847 1.037965 -0.061993 -8.870613 -50.817637 17.518218 -149.902346 80.237443 -157.782440 0.860101 -17.238070 8.342575 -0.463572 -0.793887 -0.168941
